<svg xmlns="http://www.w3.org/2000/svg" xmlns:xlink="http://www.w3.org/1999/xlink" width="500" zoomAndPan="magnify" viewBox="0 0 375 374.999991" height="500" preserveAspectRatio="xMidYMid meet" version="1.0"><defs><g/><clipPath id="57eba5530c"><path d="M 102.394531 56.976562 L 265.894531 56.976562 L 265.894531 160.476562 L 102.394531 160.476562 Z M 102.394531 56.976562 " clip-rule="nonzero"/></clipPath><clipPath id="463f5290c1"><path d="M 80.527344 75.296875 L 286.777344 75.296875 L 286.777344 205.796875 L 80.527344 205.796875 Z M 80.527344 75.296875 " clip-rule="nonzero"/></clipPath><clipPath id="78b56fc64a"><path d="M 211 205 L 253 205 L 253 242 L 211 242 Z M 211 205 " clip-rule="nonzero"/></clipPath><clipPath id="4919d7753d"><path d="M 248.359375 205.804688 L 252.671875 236.5 L 215.730469 241.691406 L 211.417969 211 Z M 248.359375 205.804688 " clip-rule="nonzero"/></clipPath><clipPath id="c0bdb8e78d"><path d="M 0.199219 0.679688 L 41.71875 0.679688 L 41.71875 36.921875 L 0.199219 36.921875 Z M 0.199219 0.679688 " clip-rule="nonzero"/></clipPath><clipPath id="92804c6dd2"><path d="M 37.359375 0.804688 L 41.671875 31.5 L 4.730469 36.691406 L 0.417969 6 Z M 37.359375 0.804688 " clip-rule="nonzero"/></clipPath><clipPath id="b359ba127c"><rect x="0" width="42" y="0" height="37"/></clipPath><clipPath id="20cac268d5"><path d="M 118.246094 205.941406 L 172.5625 205.941406 L 172.5625 209.4375 L 118.246094 209.4375 Z M 118.246094 205.941406 " clip-rule="nonzero"/></clipPath><clipPath id="18f0942d85"><path d="M 0.246094 0.941406 L 54.5625 0.941406 L 54.5625 4.4375 L 0.246094 4.4375 Z M 0.246094 0.941406 " clip-rule="nonzero"/></clipPath><clipPath id="a0065b92ed"><rect x="0" width="55" y="0" height="5"/></clipPath><clipPath id="c0c4a71722"><path d="M 136.46875 80.78125 L 230.539062 80.78125 L 230.539062 97.609375 L 136.46875 97.609375 Z M 136.46875 80.78125 " clip-rule="nonzero"/></clipPath><clipPath id="eeaaf03d8d"><path d="M 230.527344 97.609375 C 230.527344 88.445312 209.113281 80.78125 183.5 80.78125 C 157.882812 80.78125 136.46875 88.445312 136.46875 97.609375 L 162.582031 97.609375 C 162.582031 93.535156 172.105469 90.125 183.5 90.125 C 194.890625 90.125 204.414062 93.535156 204.414062 97.609375 Z M 230.527344 97.609375 " clip-rule="nonzero"/></clipPath><clipPath id="52bab38204"><path d="M 0.46875 0.78125 L 94.539062 0.78125 L 94.539062 17.609375 L 0.46875 17.609375 Z M 0.46875 0.78125 " clip-rule="nonzero"/></clipPath><clipPath id="76fd417dfb"><path d="M 94.527344 17.609375 C 94.527344 8.445312 73.113281 0.78125 47.5 0.78125 C 21.882812 0.78125 0.46875 8.445312 0.46875 17.609375 L 26.582031 17.609375 C 26.582031 13.535156 36.105469 10.125 47.5 10.125 C 58.890625 10.125 68.414062 13.535156 68.414062 17.609375 Z M 94.527344 17.609375 " clip-rule="nonzero"/></clipPath><clipPath id="1f8b406e23"><rect x="0" width="95" y="0" height="18"/></clipPath><clipPath id="2d54538840"><path d="M 141.378906 40.515625 L 225.621094 40.515625 L 225.621094 74.289062 L 141.378906 74.289062 Z M 141.378906 40.515625 " clip-rule="nonzero"/></clipPath><clipPath id="94c7bfed8a"><path d="M 225.617188 74.289062 C 225.617188 55.964844 206.441406 40.648438 183.5 40.648438 C 160.558594 40.648438 141.378906 55.964844 141.378906 74.289062 L 164.765625 74.289062 C 164.765625 66.140625 173.296875 59.328125 183.5 59.328125 C 193.703125 59.328125 202.230469 66.140625 202.230469 74.289062 Z M 225.617188 74.289062 " clip-rule="nonzero"/></clipPath><clipPath id="c20e425473"><path d="M 0.378906 0.558594 L 84.621094 0.558594 L 84.621094 34.289062 L 0.378906 34.289062 Z M 0.378906 0.558594 " clip-rule="nonzero"/></clipPath><clipPath id="0b8fe984b4"><path d="M 84.617188 34.289062 C 84.617188 15.964844 65.441406 0.648438 42.5 0.648438 C 19.558594 0.648438 0.378906 15.964844 0.378906 34.289062 L 23.765625 34.289062 C 23.765625 26.140625 32.296875 19.328125 42.5 19.328125 C 52.703125 19.328125 61.230469 26.140625 61.230469 34.289062 Z M 84.617188 34.289062 " clip-rule="nonzero"/></clipPath><clipPath id="2c40c78205"><rect x="0" width="85" y="0" height="35"/></clipPath><clipPath id="1a1d608024"><path d="M 120 93 L 150 93 L 150 154 L 120 154 Z M 120 93 " clip-rule="nonzero"/></clipPath><clipPath id="046cffff4a"><path d="M 139.082031 93.992188 L 149.433594 97.40625 L 131.007812 153.332031 L 120.65625 149.921875 Z M 139.082031 93.992188 " clip-rule="nonzero"/></clipPath><clipPath id="468cb3fd3e"><path d="M 0.480469 0.839844 L 29.519531 0.839844 L 29.519531 60.359375 L 0.480469 60.359375 Z M 0.480469 0.839844 " clip-rule="nonzero"/></clipPath><clipPath id="b42b5cd92b"><path d="M 19.082031 0.992188 L 29.433594 4.40625 L 11.007812 60.332031 L 0.65625 56.921875 Z M 19.082031 0.992188 " clip-rule="nonzero"/></clipPath><clipPath id="69a7dbead0"><rect x="0" width="30" y="0" height="61"/></clipPath><clipPath id="303751aa71"><path d="M 159 152 L 241 152 L 241 247 L 159 247 Z M 159 152 " clip-rule="nonzero"/></clipPath><clipPath id="bae0ebd0cf"><path d="M 251.398438 170.246094 L 227.402344 260.890625 L 159.550781 242.929688 L 183.546875 152.285156 Z M 251.398438 170.246094 " clip-rule="nonzero"/></clipPath><clipPath id="6ff6d7752f"><path d="M 159.570312 242.859375 C 196.527344 252.644531 232.882812 240.199219 239.410156 215.535156 C 245.941406 190.867188 220.507812 162.066406 183.546875 152.285156 L 176.890625 177.429688 C 193.328125 181.78125 204.640625 194.589844 201.734375 205.558594 C 198.832031 216.53125 182.664062 222.0625 166.226562 217.710938 Z M 159.570312 242.859375 " clip-rule="nonzero"/></clipPath><clipPath id="bf6116005a"><path d="M 0.359375 0.160156 L 82 0.160156 L 82 95 L 0.359375 95 Z M 0.359375 0.160156 " clip-rule="nonzero"/></clipPath><clipPath id="d9cf3889ae"><path d="M 92.398438 18.246094 L 68.402344 108.890625 L 0.550781 90.929688 L 24.546875 0.285156 Z M 92.398438 18.246094 " clip-rule="nonzero"/></clipPath><clipPath id="834e712eae"><path d="M 0.570312 90.859375 C 37.527344 100.644531 73.882812 88.199219 80.410156 63.535156 C 86.941406 38.867188 61.507812 10.066406 24.546875 0.285156 L 17.890625 25.429688 C 34.328125 29.78125 45.640625 42.589844 42.734375 53.558594 C 39.832031 64.53125 23.664062 70.0625 7.226562 65.710938 Z M 0.570312 90.859375 " clip-rule="nonzero"/></clipPath><clipPath id="805e12f219"><rect x="0" width="82" y="0" height="95"/></clipPath><clipPath id="d28bbb31c8"><rect x="0" width="105" y="0" height="175"/></clipPath><clipPath id="636a699e35"><path d="M 125 125 L 148 125 L 148 210 L 125 210 Z M 125 125 " clip-rule="nonzero"/></clipPath><clipPath id="bb8c5bb4d7"><path d="M 125.605469 207.941406 L 133.945312 125.453125 L 147.332031 126.808594 L 138.992188 209.292969 Z M 125.605469 207.941406 " clip-rule="nonzero"/></clipPath><clipPath id="f51ac358e1"><path d="M 0.519531 0.28125 L 22.359375 0.28125 L 22.359375 84.519531 L 0.519531 84.519531 Z M 0.519531 0.28125 " clip-rule="nonzero"/></clipPath><clipPath id="b72f7de72b"><path d="M 0.605469 82.941406 L 8.945312 0.453125 L 22.332031 1.808594 L 13.992188 84.292969 Z M 0.605469 82.941406 " clip-rule="nonzero"/></clipPath><clipPath id="a9f6a85175"><rect x="0" width="23" y="0" height="85"/></clipPath><clipPath id="b729618feb"><path d="M 80 15 L 153 15 L 153 271 L 80 271 Z M 80 15 " clip-rule="nonzero"/></clipPath><clipPath id="90812550c4"><path d="M 80.207031 265.0625 L 115.332031 15.15625 L 152.269531 20.347656 L 117.148438 270.253906 Z M 80.207031 265.0625 " clip-rule="nonzero"/></clipPath><clipPath id="d1365a5de9"><path d="M 0.160156 0.121094 L 72.398438 0.121094 L 72.398438 255.480469 L 0.160156 255.480469 Z M 0.160156 0.121094 " clip-rule="nonzero"/></clipPath><clipPath id="95891385e8"><path d="M 0.207031 250.0625 L 35.332031 0.15625 L 72.269531 5.347656 L 37.148438 255.253906 Z M 0.207031 250.0625 " clip-rule="nonzero"/></clipPath><clipPath id="e76a3e9df4"><rect x="0" width="73" y="0" height="256"/></clipPath><clipPath id="5364bf026d"><path d="M 172 164 L 212 164 L 212 220 L 172 220 Z M 172 164 " clip-rule="nonzero"/></clipPath><clipPath id="86f404f433"><path d="M 211.933594 165.882812 L 210.367188 220.976562 L 172.554688 219.902344 L 174.121094 164.808594 Z M 211.933594 165.882812 " clip-rule="nonzero"/></clipPath><clipPath id="39bd83c33b"><path d="M 172.558594 219.859375 C 193.152344 220.445312 210.726562 208.402344 211.152344 193.410156 C 211.578125 178.417969 194.714844 165.394531 174.121094 164.808594 L 173.6875 180.09375 C 182.847656 180.355469 190.34375 186.144531 190.15625 192.8125 C 189.964844 199.480469 182.152344 204.835938 172.992188 204.578125 Z M 172.558594 219.859375 " clip-rule="nonzero"/></clipPath><clipPath id="1cf627d7f0"><path d="M 0.320312 0.640625 L 39.679688 0.640625 L 39.679688 56 L 0.320312 56 Z M 0.320312 0.640625 " clip-rule="nonzero"/></clipPath><clipPath id="b14218c18c"><path d="M 39.933594 1.882812 L 38.367188 56.976562 L 0.554688 55.902344 L 2.121094 0.808594 Z M 39.933594 1.882812 " clip-rule="nonzero"/></clipPath><clipPath id="046702f0b7"><path d="M 0.558594 55.859375 C 21.152344 56.445312 38.726562 44.402344 39.152344 29.410156 C 39.578125 14.417969 22.714844 1.394531 2.121094 0.808594 L 1.6875 16.09375 C 10.847656 16.355469 18.34375 22.144531 18.15625 28.8125 C 17.964844 35.480469 10.152344 40.835938 0.992188 40.578125 Z M 0.558594 55.859375 " clip-rule="nonzero"/></clipPath><clipPath id="e845af5b91"><rect x="0" width="40" y="0" height="56"/></clipPath><clipPath id="54794ec569"><path d="M 208 93 L 242 93 L 242 124 L 208 124 Z M 208 93 " clip-rule="nonzero"/></clipPath><clipPath id="fd52ae222f"><path d="M 208.875 98.082031 L 237.621094 93.992188 L 241.257812 119.574219 L 212.511719 123.664062 Z M 208.875 98.082031 " clip-rule="nonzero"/></clipPath><clipPath id="f1fedab3c5"><path d="M 0.800781 0.839844 L 33.441406 0.839844 L 33.441406 30.839844 L 0.800781 30.839844 Z M 0.800781 0.839844 " clip-rule="nonzero"/></clipPath><clipPath id="598c9dbde0"><path d="M 0.875 5.082031 L 29.621094 0.992188 L 33.257812 26.574219 L 4.511719 30.664062 Z M 0.875 5.082031 " clip-rule="nonzero"/></clipPath><clipPath id="e8d3ca9ab8"><rect x="0" width="34" y="0" height="31"/></clipPath><clipPath id="6c35b9172d"><path d="M 214 0 L 291 0 L 291 286 L 214 286 Z M 214 0 " clip-rule="nonzero"/></clipPath><clipPath id="3612bb3eae"><path d="M 251.453125 0 L 290.839844 280.230469 L 253.898438 285.421875 L 214.515625 5.191406 Z M 251.453125 0 " clip-rule="nonzero"/></clipPath><clipPath id="1c6f31603a"><path d="M 0.320312 0 L 76.878906 0 L 76.878906 285.601562 L 0.320312 285.601562 Z M 0.320312 0 " clip-rule="nonzero"/></clipPath><clipPath id="1973db479e"><path d="M 37.453125 0 L 76.839844 280.230469 L 39.898438 285.421875 L 0.515625 5.191406 Z M 37.453125 0 " clip-rule="nonzero"/></clipPath><clipPath id="ffc539bd54"><rect x="0" width="77" y="0" height="286"/></clipPath><clipPath id="7ae461b30b"><path d="M 173 83 L 218 83 L 218 109 L 173 109 Z M 173 83 " clip-rule="nonzero"/></clipPath><clipPath id="205d7c20e5"><path d="M 177.472656 83.988281 L 217.265625 94.832031 L 213.449219 108.828125 L 173.660156 97.984375 Z M 177.472656 83.988281 " clip-rule="nonzero"/></clipPath><clipPath id="360c33868f"><path d="M 0.519531 0.761719 L 44.441406 0.761719 L 44.441406 25.960938 L 0.519531 25.960938 Z M 0.519531 0.761719 " clip-rule="nonzero"/></clipPath><clipPath id="0898dc5fe7"><path d="M 4.472656 0.988281 L 44.265625 11.832031 L 40.449219 25.828125 L 0.660156 14.984375 Z M 4.472656 0.988281 " clip-rule="nonzero"/></clipPath><clipPath id="1638b8565f"><rect x="0" width="45" y="0" height="26"/></clipPath><clipPath id="80bea5693b"><path d="M 172 133 L 193 133 L 193 164 L 172 164 Z M 172 133 " clip-rule="nonzero"/></clipPath><clipPath id="01878c15aa"><path d="M 192.632812 133.648438 L 191.773438 163.871094 L 172.902344 163.335938 L 173.757812 133.109375 Z M 192.632812 133.648438 " clip-rule="nonzero"/></clipPath><clipPath id="49b5663577"><path d="M 172.902344 163.285156 C 183.179688 163.578125 191.96875 156.953125 192.203125 148.734375 C 192.4375 140.515625 184.039062 133.402344 173.757812 133.109375 L 173.519531 141.488281 C 178.09375 141.617188 181.828125 144.78125 181.722656 148.4375 C 181.621094 152.09375 177.710938 155.039062 173.140625 154.910156 Z M 172.902344 163.285156 " clip-rule="nonzero"/></clipPath><clipPath id="8f16c8d3cf"><path d="M 0.800781 0 L 20.480469 0 L 20.480469 30.679688 L 0.800781 30.679688 Z M 0.800781 0 " clip-rule="nonzero"/></clipPath><clipPath id="13dfc0789b"><path d="M 20.632812 0.648438 L 19.773438 30.871094 L 0.902344 30.335938 L 1.757812 0.109375 Z M 20.632812 0.648438 " clip-rule="nonzero"/></clipPath><clipPath id="7a5d3a3eb2"><path d="M 0.902344 30.285156 C 11.179688 30.578125 19.96875 23.953125 20.203125 15.734375 C 20.4375 7.515625 12.039062 0.402344 1.757812 0.109375 L 1.519531 8.488281 C 6.09375 8.617188 9.828125 11.78125 9.722656 15.4375 C 9.621094 19.09375 5.710938 22.039062 1.140625 21.910156 Z M 0.902344 30.285156 " clip-rule="nonzero"/></clipPath><clipPath id="325034c210"><rect x="0" width="21" y="0" height="31"/></clipPath><clipPath id="5ee027ff0e"><path d="M 66.492188 232.125 L 301.976562 232.125 L 301.976562 258.402344 L 66.492188 258.402344 Z M 66.492188 232.125 " clip-rule="nonzero"/></clipPath><clipPath id="1572e25cb8"><path d="M 301.96875 258.402344 C 301.96875 244.144531 248.359375 232.226562 184.230469 232.226562 C 120.101562 232.226562 66.492188 244.144531 66.492188 258.402344 L 131.867188 258.402344 C 131.867188 252.0625 155.707031 246.761719 184.230469 246.761719 C 212.75 246.761719 236.59375 252.0625 236.59375 258.402344 Z M 301.96875 258.402344 " clip-rule="nonzero"/></clipPath><clipPath id="64372c8fd1"><path d="M 0.492188 0.125 L 235.976562 0.125 L 235.976562 26.402344 L 0.492188 26.402344 Z M 0.492188 0.125 " clip-rule="nonzero"/></clipPath><clipPath id="ad3e92a545"><path d="M 235.96875 26.402344 C 235.96875 12.144531 182.359375 0.226562 118.230469 0.226562 C 54.101562 0.226562 0.492188 12.144531 0.492188 26.402344 L 65.867188 26.402344 C 65.867188 20.0625 89.707031 14.761719 118.230469 14.761719 C 146.75 14.761719 170.59375 20.0625 170.59375 26.402344 Z M 235.96875 26.402344 " clip-rule="nonzero"/></clipPath><clipPath id="d0863d2281"><rect x="0" width="236" y="0" height="27"/></clipPath><clipPath id="2235dc1e8e"><path d="M 159.109375 146.019531 L 172.5625 146.019531 L 172.5625 209.296875 L 159.109375 209.296875 Z M 159.109375 146.019531 " clip-rule="nonzero"/></clipPath><clipPath id="41757730ed"><path d="M 0.109375 0.0195312 L 13.5625 0.0195312 L 13.5625 63.296875 L 0.109375 63.296875 Z M 0.109375 0.0195312 " clip-rule="nonzero"/></clipPath><clipPath id="691debbdd5"><rect x="0" width="14" y="0" height="64"/></clipPath><clipPath id="ac6b41165f"><path d="M 107.894531 244.949219 L 257.640625 244.949219 L 257.640625 258.402344 L 107.894531 258.402344 Z M 107.894531 244.949219 " clip-rule="nonzero"/></clipPath><clipPath id="2c0e044c26"><path d="M 0.894531 0.949219 L 150.640625 0.949219 L 150.640625 14.402344 L 0.894531 14.402344 Z M 0.894531 0.949219 " clip-rule="nonzero"/></clipPath><clipPath id="8ce6d8f36e"><rect x="0" width="151" y="0" height="15"/></clipPath></defs><g clip-path="url(#57eba5530c)"><path fill="#000000" d="M 102.675781 138.488281 C 102.675781 93.480469 139.15625 56.945312 184.144531 56.945312 C 229.128906 56.945312 265.617188 93.480469 265.617188 138.488281 C 265.617188 146.113281 264.578125 153.472656 262.605469 160.476562 C 253.007812 126.148438 221.523438 100.949219 184.152344 100.949219 C 146.78125 100.949219 115.292969 126.140625 105.699219 160.476562 C 103.726562 153.472656 102.675781 146.113281 102.675781 138.488281 Z M 102.675781 138.488281 " fill-opacity="1" fill-rule="nonzero"/></g><g clip-path="url(#463f5290c1)"><path fill="#ffffff" d="M 80.570312 178.03125 C 80.570312 121.195312 126.660156 75.058594 183.496094 75.058594 C 240.332031 75.058594 286.429688 121.195312 286.429688 178.03125 C 286.429688 187.664062 285.113281 196.953125 282.621094 205.796875 C 270.5 162.449219 230.71875 130.628906 183.503906 130.628906 C 136.289062 130.628906 96.511719 162.441406 84.390625 205.796875 C 81.898438 196.953125 80.570312 187.664062 80.570312 178.03125 Z M 80.570312 178.03125 " fill-opacity="1" fill-rule="nonzero"/></g><g fill="#ffb000" fill-opacity="1"><g transform="translate(116.07114, 243.823688)"><g><path d="M 72.453125 1.640625 C 68.234375 1.640625 64.085938 1.484375 60.015625 1.171875 C 55.953125 0.859375 52.046875 0.46875 48.296875 0 L 5.390625 0 L 5.390625 -109.734375 C 5.390625 -119.890625 7.144531 -128.25 10.65625 -134.8125 C 14.175781 -141.382812 18.710938 -146.546875 24.265625 -150.296875 C 29.816406 -154.046875 35.796875 -156.703125 42.203125 -158.265625 C 48.609375 -159.828125 54.707031 -160.609375 60.5 -160.609375 C 75.1875 -160.609375 88.273438 -159.003906 99.765625 -155.796875 C 111.253906 -152.597656 120.320312 -147.867188 126.96875 -141.609375 C 133.613281 -135.359375 136.9375 -127.625 136.9375 -118.40625 C 136.9375 -108.71875 133.257812 -100.742188 125.90625 -94.484375 C 118.5625 -88.234375 108.632812 -83.703125 96.125 -80.890625 C 111.914062 -78.859375 124.65625 -74.675781 134.34375 -68.34375 C 144.039062 -62.019531 148.890625 -53.304688 148.890625 -42.203125 C 148.890625 -33.140625 145.566406 -25.320312 138.921875 -18.75 C 132.273438 -12.1875 123.207031 -7.144531 111.71875 -3.625 C 100.226562 -0.113281 87.140625 1.640625 72.453125 1.640625 Z M 59.5625 -81.828125 C 68.15625 -81.984375 74.988281 -83.894531 80.0625 -87.5625 C 85.144531 -91.238281 87.609375 -96.4375 87.453125 -103.15625 C 87.296875 -109.882812 83.625 -117.703125 76.4375 -126.609375 C 71.125 -133.492188 64.867188 -138.578125 57.671875 -141.859375 C 50.484375 -145.140625 43.765625 -146.78125 37.515625 -146.78125 C 32.359375 -146.78125 28.566406 -145.878906 26.140625 -144.078125 C 23.722656 -142.285156 22.316406 -140.210938 21.921875 -137.859375 C 21.535156 -135.515625 21.734375 -133.328125 22.515625 -131.296875 C 23.765625 -128.484375 25.675781 -126.175781 28.25 -124.375 C 30.832031 -122.582031 33.765625 -120.785156 37.046875 -118.984375 C 40.328125 -117.191406 43.453125 -115.125 46.421875 -112.78125 C 49.390625 -110.4375 51.847656 -107.347656 53.796875 -103.515625 C 55.753906 -99.691406 56.734375 -94.726562 56.734375 -88.625 L 56.734375 -21.34375 C 70.492188 -5.394531 83.3125 -0.625 95.1875 -7.03125 C 98.164062 -8.75 100.28125 -11.914062 101.53125 -16.53125 C 102.78125 -21.144531 102.894531 -26.613281 101.875 -32.9375 C 100.863281 -39.269531 98.320312 -45.71875 94.25 -52.28125 C 88.9375 -60.726562 83.234375 -66.90625 77.140625 -70.8125 C 71.046875 -74.71875 65.1875 -76.671875 59.5625 -76.671875 Z M 59.5625 -81.828125 "/></g></g></g><g clip-path="url(#78b56fc64a)"><g clip-path="url(#4919d7753d)"><g transform="matrix(1, 0, 0, 1, 211, 205)"><g clip-path="url(#b359ba127c)"><g clip-path="url(#c0bdb8e78d)"><g clip-path="url(#92804c6dd2)"><path fill="#ffb000" d="M 37.359375 0.804688 L 41.671875 31.5 L 4.742188 36.691406 L 0.429688 5.996094 Z M 37.359375 0.804688 " fill-opacity="1" fill-rule="nonzero"/></g></g></g></g></g></g><g clip-path="url(#20cac268d5)"><g transform="matrix(1, 0, 0, 1, 118, 205)"><g clip-path="url(#a0065b92ed)"><g clip-path="url(#18f0942d85)"><path fill="#000000" d="M 0.246094 4.4375 L 0.246094 0.941406 L 54.566406 0.941406 L 54.566406 4.4375 Z M 0.246094 4.4375 " fill-opacity="1" fill-rule="nonzero"/></g></g></g></g><g clip-path="url(#c0c4a71722)"><g clip-path="url(#eeaaf03d8d)"><g transform="matrix(1, 0, 0, 1, 136, 80)"><g clip-path="url(#1f8b406e23)"><g clip-path="url(#52bab38204)"><g clip-path="url(#76fd417dfb)"><path fill="#000000" d="M 0.46875 0.78125 L 94.539062 0.78125 L 94.539062 17.609375 L 0.46875 17.609375 Z M 0.46875 0.78125 " fill-opacity="1" fill-rule="nonzero"/></g></g></g></g></g></g><g clip-path="url(#2d54538840)"><g clip-path="url(#94c7bfed8a)"><g transform="matrix(1, 0, 0, 1, 141, 40)"><g clip-path="url(#2c40c78205)"><g clip-path="url(#c20e425473)"><g clip-path="url(#0b8fe984b4)"><path fill="#000000" d="M 0.378906 0.648438 L 84.621094 0.648438 L 84.621094 34.289062 L 0.378906 34.289062 Z M 0.378906 0.648438 " fill-opacity="1" fill-rule="nonzero"/></g></g></g></g></g></g><g clip-path="url(#1a1d608024)"><g clip-path="url(#046cffff4a)"><g transform="matrix(1, 0, 0, 1, 120, 93)"><g clip-path="url(#69a7dbead0)"><g clip-path="url(#468cb3fd3e)"><g clip-path="url(#b42b5cd92b)"><path fill="#000000" d="M 19.082031 0.992188 L 29.433594 4.40625 L 11.007812 60.328125 L 0.65625 56.914062 Z M 19.082031 0.992188 " fill-opacity="1" fill-rule="nonzero"/></g></g></g></g></g></g><g clip-path="url(#303751aa71)"><g clip-path="url(#bae0ebd0cf)"><g clip-path="url(#6ff6d7752f)"><g transform="matrix(1, 0, 0, 1, 159, 152)"><g clip-path="url(#805e12f219)"><g clip-path="url(#bf6116005a)"><g clip-path="url(#d9cf3889ae)"><g clip-path="url(#834e712eae)"><path fill="#ffb000" d="M 92.398438 18.246094 L 68.402344 108.890625 L 0.550781 90.929688 L 24.546875 0.285156 Z M 92.398438 18.246094 " fill-opacity="1" fill-rule="nonzero"/></g></g></g></g></g></g></g></g><g transform="matrix(1, 0, 0, 1, 130, 79)"><g clip-path="url(#d28bbb31c8)"><g fill="#000000" fill-opacity="1"><g transform="translate(0.821301, 130.532785)"><g><path d="M 44.765625 -43.203125 L 44.765625 -46.6875 C 48.929688 -46.6875 52.546875 -47.898438 55.609375 -50.328125 C 58.679688 -52.753906 60.910156 -56.050781 62.296875 -60.21875 C 63.679688 -64.382812 63.96875 -69.039062 63.15625 -74.1875 C 62.351562 -79.332031 60.160156 -84.679688 56.578125 -90.234375 C 54.253906 -93.816406 51.414062 -96.992188 48.0625 -99.765625 C 44.707031 -102.546875 41.265625 -104.71875 37.734375 -106.28125 C 34.210938 -107.84375 30.890625 -108.625 27.765625 -108.625 C 23.828125 -108.625 20.988281 -107.957031 19.25 -106.625 C 17.519531 -105.300781 16.507812 -103.769531 16.21875 -102.03125 C 15.9375 -100.300781 16.082031 -98.679688 16.65625 -97.171875 C 17.46875 -95.085938 18.859375 -93.378906 20.828125 -92.046875 C 22.796875 -90.722656 24.960938 -89.394531 27.328125 -88.0625 C 29.703125 -86.738281 32.015625 -85.207031 34.265625 -83.46875 C 36.523438 -81.726562 38.378906 -79.441406 39.828125 -76.609375 C 41.273438 -73.773438 42 -70.101562 42 -65.59375 L 42 0 L 3.984375 0 L 3.984375 -81.21875 C 3.984375 -88.726562 5.285156 -94.910156 7.890625 -99.765625 C 10.492188 -104.628906 13.847656 -108.445312 17.953125 -111.21875 C 22.066406 -114 26.492188 -115.96875 31.234375 -117.125 C 35.972656 -118.289062 40.484375 -118.875 44.765625 -118.875 C 55.640625 -118.875 65.328125 -117.394531 73.828125 -114.4375 C 82.335938 -111.488281 89.050781 -107.410156 93.96875 -102.203125 C 98.882812 -97.003906 101.34375 -90.988281 101.34375 -84.15625 C 101.34375 -76.875 99.113281 -70.132812 94.65625 -63.9375 C 90.207031 -57.75 83.757812 -52.742188 75.3125 -48.921875 C 66.863281 -45.109375 56.679688 -43.203125 44.765625 -43.203125 Z M 44.765625 -43.203125 "/></g></g></g></g></g><g clip-path="url(#636a699e35)"><g clip-path="url(#bb8c5bb4d7)"><g transform="matrix(1, 0, 0, 1, 125, 125)"><g clip-path="url(#a9f6a85175)"><g clip-path="url(#f51ac358e1)"><g clip-path="url(#b72f7de72b)"><path fill="#000000" d="M 0.605469 82.941406 L 8.941406 0.476562 L 22.328125 1.828125 L 13.992188 84.292969 Z M 0.605469 82.941406 " fill-opacity="1" fill-rule="nonzero"/></g></g></g></g></g></g><g clip-path="url(#b729618feb)"><g clip-path="url(#90812550c4)"><g transform="matrix(1, 0, 0, 1, 80, 15)"><g clip-path="url(#e76a3e9df4)"><g clip-path="url(#d1365a5de9)"><g clip-path="url(#95891385e8)"><path fill="#fefefe" d="M 0.207031 250.0625 L 35.332031 0.136719 L 72.273438 5.328125 L 37.148438 255.253906 Z M 0.207031 250.0625 " fill-opacity="1" fill-rule="nonzero"/></g></g></g></g></g></g><g clip-path="url(#5364bf026d)"><g clip-path="url(#86f404f433)"><g clip-path="url(#39bd83c33b)"><g transform="matrix(1, 0, 0, 1, 172, 164)"><g clip-path="url(#e845af5b91)"><g clip-path="url(#1cf627d7f0)"><g clip-path="url(#b14218c18c)"><g clip-path="url(#046702f0b7)"><path fill="#ffffff" d="M 39.933594 1.882812 L 38.367188 56.976562 L 0.554688 55.902344 L 2.121094 0.808594 Z M 39.933594 1.882812 " fill-opacity="1" fill-rule="nonzero"/></g></g></g></g></g></g></g></g><g clip-path="url(#54794ec569)"><g clip-path="url(#fd52ae222f)"><g transform="matrix(1, 0, 0, 1, 208, 93)"><g clip-path="url(#e8d3ca9ab8)"><g clip-path="url(#f1fedab3c5)"><g clip-path="url(#598c9dbde0)"><path fill="#000000" d="M 0.875 5.082031 L 29.652344 0.988281 L 33.289062 26.570312 L 4.511719 30.664062 Z M 0.875 5.082031 " fill-opacity="1" fill-rule="nonzero"/></g></g></g></g></g></g><g clip-path="url(#6c35b9172d)"><g clip-path="url(#3612bb3eae)"><g transform="matrix(1, 0, 0, 1, 214, 0)"><g clip-path="url(#ffc539bd54)"><g clip-path="url(#1c6f31603a)"><g clip-path="url(#1973db479e)"><path fill="#fefefe" d="M 37.453125 0 L 76.835938 280.226562 L 39.898438 285.417969 L 0.515625 5.191406 Z M 37.453125 0 " fill-opacity="1" fill-rule="nonzero"/></g></g></g></g></g></g><g clip-path="url(#7ae461b30b)"><g clip-path="url(#205d7c20e5)"><g transform="matrix(1, 0, 0, 1, 173, 83)"><g clip-path="url(#1638b8565f)"><g clip-path="url(#360c33868f)"><g clip-path="url(#0898dc5fe7)"><path fill="#000000" d="M 4.472656 0.988281 L 44.28125 11.835938 L 40.464844 25.832031 L 0.660156 14.984375 Z M 4.472656 0.988281 " fill-opacity="1" fill-rule="nonzero"/></g></g></g></g></g></g><g clip-path="url(#80bea5693b)"><g clip-path="url(#01878c15aa)"><g clip-path="url(#49b5663577)"><g transform="matrix(1, 0, 0, 1, 172, 133)"><g clip-path="url(#325034c210)"><g clip-path="url(#8f16c8d3cf)"><g clip-path="url(#13dfc0789b)"><g clip-path="url(#7a5d3a3eb2)"><path fill="#ffffff" d="M 20.632812 0.648438 L 19.773438 30.796875 L 0.902344 30.261719 L 1.757812 0.109375 Z M 20.632812 0.648438 " fill-opacity="1" fill-rule="nonzero"/></g></g></g></g></g></g></g></g><g clip-path="url(#5ee027ff0e)"><g clip-path="url(#1572e25cb8)"><g transform="matrix(1, 0, 0, 1, 66, 232)"><g clip-path="url(#d0863d2281)"><g clip-path="url(#64372c8fd1)"><g clip-path="url(#ad3e92a545)"><path fill="#000000" d="M 0.492188 0.226562 L 235.976562 0.226562 L 235.976562 26.402344 L 0.492188 26.402344 Z M 0.492188 0.226562 " fill-opacity="1" fill-rule="nonzero"/></g></g></g></g></g></g><g clip-path="url(#2235dc1e8e)"><g transform="matrix(1, 0, 0, 1, 159, 146)"><g clip-path="url(#691debbdd5)"><g clip-path="url(#41757730ed)"><path fill="#000000" d="M 0.109375 63.296875 L 0.109375 0.0117188 L 13.5625 0.0117188 L 13.5625 63.296875 Z M 0.109375 63.296875 " fill-opacity="1" fill-rule="nonzero"/></g></g></g></g><g clip-path="url(#ac6b41165f)"><g transform="matrix(1, 0, 0, 1, 107, 244)"><g clip-path="url(#8ce6d8f36e)"><g clip-path="url(#2c0e044c26)"><path fill="#000000" d="M 0.894531 0.949219 L 150.636719 0.949219 L 150.636719 14.402344 L 0.894531 14.402344 Z M 0.894531 0.949219 " fill-opacity="1" fill-rule="nonzero"/></g></g></g></g></svg>